<svg width="208" height="128" viewBox="0 0 208 128" fill="none" xmlns="http://www.w3.org/2000/svg">
<rect y="4" width="16" height="120" fill="white"/>
<rect x="112" y="4" width="16" height="120" fill="white" fill-opacity="0.956863"/>
<path d="M64 0C81.6731 0 96 14.3269 96 32V96C96 113.673 81.6731 128 64 128C46.3269 128 32 113.673 32 96V32C32 14.3269 46.3269 0 64 0ZM64 17.0664C55.1635 17.0664 48.0001 24.23 48 33.0664V94.9336C48.0001 103.77 55.1635 110.934 64 110.934C72.8365 110.934 79.9999 103.77 80 94.9336V33.0664C79.9999 24.23 72.8365 17.0664 64 17.0664Z" fill="white"/>
<path d="M176 0C193.673 0 208 14.3269 208 32V96C208 113.673 193.673 128 176 128C158.327 128 144 113.673 144 96V32C144 14.3269 158.327 0 176 0ZM176 17.0664C167.164 17.0664 160 24.23 160 33.0664V94.9336C160 103.77 167.164 110.934 176 110.934C184.836 110.934 192 103.77 192 94.9336V33.0664C192 24.23 184.836 17.0664 176 17.0664Z" fill="white"/>
</svg>
