<svg width="279" height="191" viewBox="0 0 279 191" fill="none" xmlns="http://www.w3.org/2000/svg">
<rect width="279" height="191" fill="#081F44"/>
<rect x="36" y="11" width="16" height="120" fill="white"/>
<rect x="148" y="11" width="16" height="120" fill="white"/>
<path d="M100 7C117.673 7 132 21.3269 132 39V103C132 120.673 117.673 135 100 135C82.3269 135 68 120.673 68 103V39C68 21.3269 82.3269 7 100 7ZM100 24.0664C91.1635 24.0664 84.0001 31.23 84 40.0664V101.934C84.0001 110.77 91.1635 117.934 100 117.934C108.836 117.934 116 110.77 116 101.934V40.0664C116 31.23 108.836 24.0664 100 24.0664Z" fill="white"/>
<path d="M212 7C229.673 7 244 21.3269 244 39V103C244 120.673 229.673 135 212 135C194.327 135 180 120.673 180 103V39C180 21.3269 194.327 7 212 7ZM212 24.0664C203.164 24.0664 196 31.23 196 40.0664V101.934C196 110.77 203.164 117.934 212 117.934C220.836 117.934 228 110.77 228 101.934V40.0664C228 31.23 220.836 24.0664 212 24.0664Z" fill="white"/>
<path d="M59.7436 184L53.5859 162.182H57.8366L61.7678 178.215H61.9702L66.1676 162.182H70.0348L74.2429 178.226H74.4347L78.3658 162.182H82.6165L76.4588 184H72.5597L68.1918 168.691H68.0213L63.6428 184H59.7436ZM91.361 184.32C89.7204 184.32 88.3035 183.979 87.1103 183.297C85.9242 182.608 85.0116 181.635 84.3724 180.378C83.7332 179.114 83.4136 177.626 83.4136 175.914C83.4136 174.231 83.7332 172.754 84.3724 171.482C85.0187 170.204 85.9207 169.21 87.0783 168.499C88.236 167.782 89.5961 167.423 91.1586 167.423C92.1671 167.423 93.1188 167.587 94.0137 167.913C94.9157 168.233 95.7112 168.73 96.4001 169.405C97.0961 170.08 97.643 170.939 98.0407 171.983C98.4384 173.02 98.6373 174.256 98.6373 175.69V176.873H85.2246V174.273H94.9406C94.9335 173.535 94.7737 172.878 94.4612 172.303C94.1487 171.72 93.7119 171.262 93.1508 170.928C92.5968 170.594 91.9505 170.428 91.2119 170.428C90.4235 170.428 89.731 170.619 89.1344 171.003C88.5379 171.379 88.0727 171.876 87.7389 172.494C87.4121 173.105 87.2452 173.776 87.2381 174.508V176.777C87.2381 177.729 87.4121 178.545 87.7602 179.227C88.1082 179.902 88.5947 180.42 89.2197 180.783C89.8447 181.138 90.5762 181.315 91.4143 181.315C91.9754 181.315 92.4832 181.237 92.9377 181.081C93.3923 180.918 93.7864 180.68 94.1202 180.367C94.454 180.055 94.7062 179.668 94.8766 179.206L98.4775 179.611C98.2502 180.562 97.817 181.393 97.1778 182.104C96.5457 182.807 95.736 183.354 94.7488 183.744C93.7616 184.128 92.6323 184.32 91.361 184.32ZM102.67 184V162.182H106.527V170.342H106.687C106.886 169.945 107.166 169.522 107.528 169.075C107.891 168.62 108.381 168.233 108.998 167.913C109.616 167.587 110.405 167.423 111.364 167.423C112.628 167.423 113.768 167.746 114.783 168.393C115.806 169.032 116.616 169.98 117.212 171.237C117.816 172.487 118.118 174.021 118.118 175.839C118.118 177.636 117.823 179.163 117.234 180.42C116.644 181.678 115.842 182.636 114.826 183.297C113.81 183.957 112.66 184.288 111.374 184.288C110.437 184.288 109.659 184.131 109.041 183.819C108.423 183.506 107.926 183.13 107.55 182.69C107.18 182.242 106.893 181.82 106.687 181.422H106.463V184H102.67ZM106.452 175.818C106.452 176.876 106.601 177.803 106.9 178.599C107.205 179.394 107.642 180.016 108.21 180.463C108.785 180.903 109.481 181.124 110.298 181.124C111.15 181.124 111.864 180.896 112.44 180.442C113.015 179.98 113.448 179.352 113.739 178.556C114.038 177.754 114.187 176.841 114.187 175.818C114.187 174.803 114.041 173.901 113.75 173.112C113.459 172.324 113.025 171.706 112.45 171.259C111.875 170.811 111.158 170.587 110.298 170.587C109.474 170.587 108.775 170.804 108.199 171.237C107.624 171.67 107.187 172.278 106.889 173.059C106.598 173.84 106.452 174.76 106.452 175.818ZM142.065 168.18C141.966 167.249 141.547 166.525 140.808 166.006C140.077 165.488 139.125 165.229 137.953 165.229C137.129 165.229 136.423 165.353 135.833 165.602C135.244 165.85 134.793 166.187 134.48 166.614C134.168 167.04 134.008 167.526 134.001 168.073C134.001 168.528 134.104 168.922 134.31 169.256C134.523 169.589 134.811 169.874 135.173 170.108C135.535 170.335 135.936 170.527 136.377 170.683C136.817 170.839 137.261 170.971 137.708 171.077L139.754 171.589C140.578 171.781 141.369 172.04 142.129 172.366C142.896 172.693 143.582 173.105 144.186 173.602C144.796 174.099 145.279 174.7 145.634 175.403C145.989 176.106 146.167 176.93 146.167 177.874C146.167 179.153 145.84 180.278 145.187 181.251C144.534 182.217 143.589 182.974 142.353 183.521C141.124 184.06 139.637 184.33 137.889 184.33C136.192 184.33 134.718 184.067 133.468 183.542C132.225 183.016 131.252 182.249 130.549 181.241C129.853 180.232 129.477 179.004 129.42 177.555H133.308C133.365 178.315 133.6 178.947 134.012 179.451C134.423 179.955 134.96 180.332 135.62 180.58C136.288 180.829 137.034 180.953 137.857 180.953C138.717 180.953 139.47 180.825 140.116 180.57C140.769 180.307 141.281 179.945 141.65 179.483C142.019 179.014 142.208 178.467 142.215 177.842C142.208 177.274 142.041 176.805 141.714 176.436C141.387 176.06 140.929 175.747 140.34 175.499C139.757 175.243 139.075 175.016 138.294 174.817L135.812 174.178C134.015 173.716 132.595 173.016 131.551 172.079C130.514 171.134 129.995 169.881 129.995 168.318C129.995 167.033 130.343 165.907 131.039 164.941C131.742 163.975 132.698 163.226 133.905 162.693C135.112 162.153 136.48 161.884 138.007 161.884C139.555 161.884 140.911 162.153 142.076 162.693C143.248 163.226 144.168 163.968 144.835 164.92C145.503 165.864 145.847 166.951 145.869 168.18H142.065ZM158.291 167.636V170.619H148.884V167.636H158.291ZM151.207 163.716H155.063V179.078C155.063 179.597 155.142 179.994 155.298 180.271C155.461 180.541 155.674 180.726 155.937 180.825C156.2 180.925 156.491 180.974 156.811 180.974C157.052 180.974 157.272 180.957 157.471 180.921C157.677 180.886 157.833 180.854 157.94 180.825L158.59 183.84C158.384 183.911 158.089 183.989 157.705 184.075C157.329 184.16 156.867 184.21 156.32 184.224C155.355 184.252 154.485 184.107 153.71 183.787C152.936 183.46 152.322 182.956 151.867 182.274C151.42 181.592 151.2 180.74 151.207 179.717V163.716ZM172.546 177.118V167.636H176.403V184H172.664V181.092H172.493C172.124 182.008 171.517 182.757 170.671 183.339C169.833 183.922 168.8 184.213 167.571 184.213C166.499 184.213 165.551 183.975 164.727 183.499C163.91 183.016 163.271 182.317 162.809 181.401C162.348 180.477 162.117 179.362 162.117 178.055V167.636H165.973V177.459C165.973 178.496 166.257 179.32 166.825 179.93C167.394 180.541 168.139 180.847 169.063 180.847C169.631 180.847 170.181 180.708 170.714 180.431C171.247 180.154 171.683 179.742 172.024 179.195C172.372 178.641 172.546 177.949 172.546 177.118ZM187.041 184.288C185.756 184.288 184.605 183.957 183.589 183.297C182.574 182.636 181.771 181.678 181.182 180.42C180.592 179.163 180.297 177.636 180.297 175.839C180.297 174.021 180.596 172.487 181.192 171.237C181.796 169.98 182.609 169.032 183.632 168.393C184.655 167.746 185.795 167.423 187.052 167.423C188.011 167.423 188.799 167.587 189.417 167.913C190.035 168.233 190.525 168.62 190.887 169.075C191.249 169.522 191.53 169.945 191.729 170.342H191.888V162.182H195.756V184H191.963V181.422H191.729C191.53 181.82 191.242 182.242 190.866 182.69C190.489 183.13 189.992 183.506 189.374 183.819C188.756 184.131 187.979 184.288 187.041 184.288ZM188.117 181.124C188.934 181.124 189.63 180.903 190.205 180.463C190.78 180.016 191.217 179.394 191.516 178.599C191.814 177.803 191.963 176.876 191.963 175.818C191.963 174.76 191.814 173.84 191.516 173.059C191.224 172.278 190.791 171.67 190.216 171.237C189.648 170.804 188.948 170.587 188.117 170.587C187.258 170.587 186.54 170.811 185.965 171.259C185.39 171.706 184.957 172.324 184.665 173.112C184.374 173.901 184.229 174.803 184.229 175.818C184.229 176.841 184.374 177.754 184.665 178.556C184.964 179.352 185.4 179.98 185.976 180.442C186.558 180.896 187.272 181.124 188.117 181.124ZM200.465 184V167.636H204.322V184H200.465ZM202.404 165.314C201.793 165.314 201.268 165.112 200.827 164.707C200.387 164.295 200.167 163.801 200.167 163.226C200.167 162.643 200.387 162.15 200.827 161.745C201.268 161.333 201.793 161.127 202.404 161.127C203.022 161.127 203.548 161.333 203.981 161.745C204.421 162.15 204.641 162.643 204.641 163.226C204.641 163.801 204.421 164.295 203.981 164.707C203.548 165.112 203.022 165.314 202.404 165.314ZM216.025 184.32C214.427 184.32 213.042 183.968 211.87 183.265C210.698 182.562 209.789 181.578 209.143 180.314C208.504 179.05 208.184 177.572 208.184 175.882C208.184 174.192 208.504 172.711 209.143 171.44C209.789 170.168 210.698 169.181 211.87 168.478C213.042 167.775 214.427 167.423 216.025 167.423C217.623 167.423 219.008 167.775 220.18 168.478C221.352 169.181 222.257 170.168 222.897 171.44C223.543 172.711 223.866 174.192 223.866 175.882C223.866 177.572 223.543 179.05 222.897 180.314C222.257 181.578 221.352 182.562 220.18 183.265C219.008 183.968 217.623 184.32 216.025 184.32ZM216.046 181.23C216.913 181.23 217.637 180.992 218.22 180.516C218.802 180.033 219.235 179.387 219.519 178.577C219.811 177.768 219.956 176.866 219.956 175.871C219.956 174.87 219.811 173.964 219.519 173.155C219.235 172.338 218.802 171.688 218.22 171.205C217.637 170.722 216.913 170.481 216.046 170.481C215.159 170.481 214.42 170.722 213.831 171.205C213.248 171.688 212.811 172.338 212.52 173.155C212.236 173.964 212.094 174.87 212.094 175.871C212.094 176.866 212.236 177.768 212.52 178.577C212.811 179.387 213.248 180.033 213.831 180.516C214.42 180.992 215.159 181.23 216.046 181.23Z" fill="white"/>
</svg>
