<svg width="355" height="355" viewBox="0 0 355 355" fill="none" xmlns="http://www.w3.org/2000/svg">
<rect width="355" height="355" fill="#081F44"/>
<rect x="74" y="118" width="16" height="120" fill="white"/>
<rect x="186" y="118" width="16" height="120" fill="white"/>
<path d="M138 114C155.673 114 170 128.327 170 146V210C170 227.673 155.673 242 138 242C120.327 242 106 227.673 106 210V146C106 128.327 120.327 114 138 114ZM138 131.066C129.164 131.066 122 138.23 122 147.066V208.934C122 217.77 129.164 224.934 138 224.934C146.836 224.934 154 217.77 154 208.934V147.066C154 138.23 146.836 131.066 138 131.066Z" fill="white"/>
<path d="M250 114C267.673 114 282 128.327 282 146V210C282 227.673 267.673 242 250 242C232.327 242 218 227.673 218 210V146C218 128.327 232.327 114 250 114ZM250 131.066C241.164 131.066 234 138.23 234 147.066V208.934C234 217.77 241.164 224.934 250 224.934C258.836 224.934 266 217.77 266 208.934V147.066C266 138.23 258.836 131.066 250 131.066Z" fill="white"/>
<path d="M114.395 319L109.469 301.545H112.869L116.014 314.372H116.176L119.534 301.545H122.628L125.994 314.381H126.148L129.293 301.545H132.693L127.767 319H124.648L121.153 306.753H121.017L117.514 319H114.395ZM139.689 319.256C138.376 319.256 137.243 318.983 136.288 318.438C135.339 317.886 134.609 317.108 134.098 316.102C133.587 315.091 133.331 313.901 133.331 312.531C133.331 311.185 133.587 310.003 134.098 308.986C134.615 307.963 135.337 307.168 136.263 306.599C137.189 306.026 138.277 305.739 139.527 305.739C140.334 305.739 141.095 305.869 141.811 306.131C142.533 306.386 143.169 306.784 143.72 307.324C144.277 307.864 144.714 308.551 145.033 309.386C145.351 310.216 145.51 311.205 145.51 312.352V313.298H134.78V311.219H142.552C142.547 310.628 142.419 310.102 142.169 309.642C141.919 309.176 141.569 308.81 141.121 308.543C140.677 308.276 140.16 308.142 139.569 308.142C138.939 308.142 138.385 308.295 137.908 308.602C137.43 308.903 137.058 309.301 136.791 309.795C136.53 310.284 136.396 310.821 136.391 311.406V313.222C136.391 313.983 136.53 314.636 136.808 315.182C137.087 315.722 137.476 316.136 137.976 316.426C138.476 316.71 139.061 316.852 139.731 316.852C140.18 316.852 140.587 316.79 140.95 316.665C141.314 316.534 141.629 316.344 141.896 316.094C142.163 315.844 142.365 315.534 142.501 315.165L145.382 315.489C145.2 316.25 144.854 316.915 144.342 317.483C143.837 318.045 143.189 318.483 142.399 318.795C141.609 319.102 140.706 319.256 139.689 319.256ZM148.736 319V301.545H151.822V308.074H151.949C152.108 307.756 152.333 307.418 152.623 307.06C152.912 306.696 153.304 306.386 153.799 306.131C154.293 305.869 154.924 305.739 155.691 305.739C156.702 305.739 157.614 305.997 158.427 306.514C159.245 307.026 159.893 307.784 160.37 308.79C160.853 309.79 161.094 311.017 161.094 312.472C161.094 313.909 160.858 315.131 160.387 316.136C159.915 317.142 159.273 317.909 158.461 318.438C157.648 318.966 156.728 319.23 155.699 319.23C154.949 319.23 154.327 319.105 153.833 318.855C153.339 318.605 152.941 318.304 152.64 317.952C152.344 317.594 152.114 317.256 151.949 316.938H151.77V319H148.736ZM151.762 312.455C151.762 313.301 151.881 314.043 152.12 314.679C152.364 315.315 152.714 315.812 153.168 316.17C153.628 316.523 154.185 316.699 154.839 316.699C155.52 316.699 156.091 316.517 156.552 316.153C157.012 315.784 157.358 315.281 157.591 314.645C157.83 314.003 157.949 313.273 157.949 312.455C157.949 311.642 157.833 310.92 157.6 310.29C157.367 309.659 157.02 309.165 156.56 308.807C156.1 308.449 155.526 308.27 154.839 308.27C154.179 308.27 153.62 308.443 153.16 308.79C152.699 309.136 152.35 309.622 152.111 310.247C151.878 310.872 151.762 311.608 151.762 312.455ZM180.252 306.344C180.173 305.599 179.838 305.02 179.247 304.605C178.661 304.19 177.9 303.983 176.963 303.983C176.304 303.983 175.738 304.082 175.267 304.281C174.795 304.48 174.434 304.75 174.184 305.091C173.934 305.432 173.806 305.821 173.801 306.259C173.801 306.622 173.883 306.937 174.048 307.205C174.218 307.472 174.448 307.699 174.738 307.886C175.028 308.068 175.349 308.222 175.701 308.347C176.054 308.472 176.409 308.577 176.767 308.662L178.403 309.071C179.062 309.224 179.696 309.432 180.304 309.693C180.917 309.955 181.465 310.284 181.948 310.682C182.437 311.08 182.823 311.56 183.107 312.122C183.392 312.685 183.534 313.344 183.534 314.099C183.534 315.122 183.272 316.023 182.75 316.801C182.227 317.574 181.471 318.179 180.482 318.616C179.5 319.048 178.309 319.264 176.911 319.264C175.554 319.264 174.375 319.054 173.375 318.634C172.38 318.213 171.602 317.599 171.039 316.793C170.482 315.986 170.181 315.003 170.136 313.844H173.247C173.292 314.452 173.48 314.957 173.809 315.361C174.139 315.764 174.568 316.065 175.096 316.264C175.63 316.463 176.227 316.562 176.886 316.562C177.573 316.562 178.176 316.46 178.693 316.256C179.215 316.045 179.625 315.756 179.92 315.386C180.215 315.011 180.366 314.574 180.372 314.074C180.366 313.619 180.232 313.244 179.971 312.949C179.71 312.648 179.343 312.398 178.872 312.199C178.406 311.994 177.86 311.812 177.235 311.653L175.25 311.142C173.812 310.773 172.676 310.213 171.84 309.463C171.011 308.707 170.596 307.705 170.596 306.455C170.596 305.426 170.875 304.526 171.431 303.753C171.994 302.98 172.758 302.381 173.724 301.955C174.69 301.523 175.784 301.307 177.005 301.307C178.244 301.307 179.329 301.523 180.261 301.955C181.198 302.381 181.934 302.974 182.468 303.736C183.002 304.491 183.278 305.361 183.295 306.344H180.252ZM193.233 305.909V308.295H185.708V305.909H193.233ZM187.565 302.773H190.651V315.062C190.651 315.477 190.713 315.795 190.838 316.017C190.969 316.233 191.139 316.381 191.35 316.46C191.56 316.54 191.793 316.58 192.048 316.58C192.242 316.58 192.418 316.565 192.577 316.537C192.742 316.509 192.867 316.483 192.952 316.46L193.472 318.872C193.307 318.929 193.071 318.991 192.764 319.06C192.463 319.128 192.094 319.168 191.656 319.179C190.884 319.202 190.188 319.085 189.568 318.83C188.949 318.568 188.458 318.165 188.094 317.619C187.736 317.074 187.56 316.392 187.565 315.574V302.773ZM204.637 313.494V305.909H207.722V319H204.731V316.673H204.594C204.299 317.406 203.813 318.006 203.137 318.472C202.467 318.937 201.64 319.17 200.657 319.17C199.799 319.17 199.041 318.98 198.381 318.599C197.728 318.213 197.217 317.653 196.847 316.92C196.478 316.182 196.293 315.29 196.293 314.244V305.909H199.379V313.767C199.379 314.597 199.606 315.256 200.06 315.744C200.515 316.233 201.112 316.477 201.85 316.477C202.305 316.477 202.745 316.366 203.171 316.145C203.597 315.923 203.947 315.594 204.219 315.156C204.498 314.713 204.637 314.159 204.637 313.494ZM216.233 319.23C215.204 319.23 214.284 318.966 213.472 318.438C212.659 317.909 212.017 317.142 211.545 316.136C211.074 315.131 210.838 313.909 210.838 312.472C210.838 311.017 211.077 309.79 211.554 308.79C212.037 307.784 212.687 307.026 213.506 306.514C214.324 305.997 215.236 305.739 216.241 305.739C217.008 305.739 217.639 305.869 218.133 306.131C218.628 306.386 219.02 306.696 219.31 307.06C219.599 307.418 219.824 307.756 219.983 308.074H220.111V301.545H223.204V319H220.17V316.938H219.983C219.824 317.256 219.594 317.594 219.293 317.952C218.991 318.304 218.594 318.605 218.099 318.855C217.605 319.105 216.983 319.23 216.233 319.23ZM217.094 316.699C217.747 316.699 218.304 316.523 218.764 316.17C219.224 315.812 219.574 315.315 219.812 314.679C220.051 314.043 220.17 313.301 220.17 312.455C220.17 311.608 220.051 310.872 219.812 310.247C219.579 309.622 219.233 309.136 218.773 308.79C218.318 308.443 217.758 308.27 217.094 308.27C216.406 308.27 215.832 308.449 215.372 308.807C214.912 309.165 214.565 309.659 214.332 310.29C214.099 310.92 213.983 311.642 213.983 312.455C213.983 313.273 214.099 314.003 214.332 314.645C214.571 315.281 214.92 315.784 215.381 316.153C215.847 316.517 216.418 316.699 217.094 316.699ZM226.972 319V305.909H230.057V319H226.972ZM228.523 304.051C228.035 304.051 227.614 303.889 227.262 303.565C226.91 303.236 226.733 302.841 226.733 302.381C226.733 301.915 226.91 301.52 227.262 301.196C227.614 300.866 228.035 300.702 228.523 300.702C229.018 300.702 229.438 300.866 229.785 301.196C230.137 301.52 230.313 301.915 230.313 302.381C230.313 302.841 230.137 303.236 229.785 303.565C229.438 303.889 229.018 304.051 228.523 304.051ZM239.42 319.256C238.142 319.256 237.034 318.974 236.096 318.412C235.159 317.849 234.432 317.062 233.914 316.051C233.403 315.04 233.147 313.858 233.147 312.506C233.147 311.153 233.403 309.969 233.914 308.952C234.432 307.935 235.159 307.145 236.096 306.582C237.034 306.02 238.142 305.739 239.42 305.739C240.699 305.739 241.807 306.02 242.744 306.582C243.682 307.145 244.406 307.935 244.917 308.952C245.434 309.969 245.693 311.153 245.693 312.506C245.693 313.858 245.434 315.04 244.917 316.051C244.406 317.062 243.682 317.849 242.744 318.412C241.807 318.974 240.699 319.256 239.42 319.256ZM239.437 316.784C240.13 316.784 240.71 316.594 241.176 316.213C241.642 315.827 241.988 315.31 242.216 314.662C242.449 314.014 242.565 313.293 242.565 312.497C242.565 311.696 242.449 310.972 242.216 310.324C241.988 309.67 241.642 309.151 241.176 308.764C240.71 308.378 240.13 308.185 239.437 308.185C238.727 308.185 238.136 308.378 237.664 308.764C237.199 309.151 236.849 309.67 236.616 310.324C236.389 310.972 236.275 311.696 236.275 312.497C236.275 313.293 236.389 314.014 236.616 314.662C236.849 315.31 237.199 315.827 237.664 316.213C238.136 316.594 238.727 316.784 239.437 316.784Z" fill="white"/>
</svg>
