<svg width="291" height="244" viewBox="0 0 291 244" fill="none" xmlns="http://www.w3.org/2000/svg">
<g clip-path="url(#clip0_3_3)">
<g opacity="0.1" clip-path="url(#clip1_3_3)">
<path d="M200.861 42.0299C199.418 42.7025 197.763 42.763 196.258 42.1983C194.753 41.6336 193.522 40.4898 192.836 39.0186C192.15 37.5474 192.065 35.8693 192.6 34.3534C193.134 32.8376 194.245 31.6081 195.687 30.9355" stroke="#2A4E84" stroke-width="1.75" stroke-linecap="round" stroke-linejoin="round"/>
<path d="M197.913 21.63L209.42 46.3066" stroke="#2A4E84" stroke-width="1.75" stroke-linecap="round" stroke-linejoin="round"/>
<path d="M198.876 21.6824C198.237 21.5418 197.574 21.6141 196.985 21.8885L178.858 30.3414C178.137 30.6777 177.582 31.2924 177.314 32.0503C177.047 32.8083 177.089 33.6473 177.432 34.3829L186.486 53.7981C186.829 54.5337 187.444 55.1056 188.197 55.3879C188.949 55.6703 189.777 55.64 190.498 55.3037L208.626 46.8508C209.214 46.5764 209.696 46.1148 209.998 45.5353L212.331 41.0709C212.548 40.655 212.666 40.1922 212.675 39.7191C212.685 39.2459 212.585 38.7754 212.384 38.3448L205.917 24.4769C205.717 24.0463 205.42 23.6674 205.052 23.3703C204.683 23.0733 204.253 22.8661 203.795 22.7652L198.876 21.6824Z" stroke="#2A4E84" stroke-width="1.75" stroke-linecap="round" stroke-linejoin="round"/>
</g>
<g opacity="0.1" clip-path="url(#clip2_3_3)">
<path d="M283.989 237.468C282.588 237.591 281.205 237.258 280.144 236.544C279.082 235.83 278.431 234.792 278.332 233.659C278.232 232.526 278.694 231.391 279.615 230.503C280.536 229.615 281.841 229.048 283.242 228.925" stroke="#2A4E84" stroke-width="1.75" stroke-linecap="round" stroke-linejoin="round"/>
<path d="M288.024 223.237L289.686 242.239" stroke="#2A4E84" stroke-width="1.75" stroke-linecap="round" stroke-linejoin="round"/>
<path d="M288.801 223.489C288.319 223.252 287.75 223.15 287.178 223.2L269.564 224.741C268.864 224.803 268.211 225.086 267.751 225.53C267.291 225.974 267.06 226.542 267.109 227.108L268.417 242.059C268.467 242.625 268.793 243.144 269.323 243.501C269.854 243.858 270.545 244.025 271.246 243.963L288.86 242.422C289.431 242.372 289.974 242.174 290.408 241.857L293.744 239.413C294.055 239.185 294.298 238.904 294.456 238.591C294.613 238.278 294.68 237.943 294.651 237.611L293.717 226.933C293.688 226.601 293.564 226.282 293.354 226.002C293.145 225.721 292.856 225.487 292.511 225.316L288.801 223.489Z" stroke="#2A4E84" stroke-width="1.75" stroke-linecap="round" stroke-linejoin="round"/>
</g>
<g opacity="0.1">
<path d="M30.4212 143.711L50.2529 161.904" stroke="#2A4E84" stroke-width="1.75" stroke-linecap="round" stroke-linejoin="round"/>
<path d="M36.9146 160.739C36.7803 158.818 35.1947 157.363 33.3733 157.49C31.5518 157.618 30.1841 159.279 30.3185 161.2C30.4529 163.122 32.0384 164.576 33.8599 164.449C35.6813 164.322 37.049 162.661 36.9146 160.739Z" stroke="#2A4E84" stroke-width="1.75" stroke-linecap="round" stroke-linejoin="round"/>
<path d="M50.3557 144.415C50.2213 142.494 48.6358 141.039 46.8143 141.167C44.9928 141.294 43.6251 142.955 43.7595 144.877C43.8939 146.798 45.4794 148.253 47.3009 148.125C49.1224 147.998 50.49 146.337 50.3557 144.415Z" stroke="#2A4E84" stroke-width="1.75" stroke-linecap="round" stroke-linejoin="round"/>
</g>
<g opacity="0.1" clip-path="url(#clip3_3_3)">
<path d="M38.6109 47.9896C39.3102 47.6333 39.5882 46.7776 39.2319 46.0783C38.8756 45.3791 38.0199 45.101 37.3207 45.4573C36.6214 45.8136 36.3434 46.6693 36.6997 47.3686C37.056 48.0678 37.9117 48.3459 38.6109 47.9896Z" stroke="#2A4E84" stroke-width="1.75" stroke-linecap="round" stroke-linejoin="round"/>
<path d="M52.5382 40.8933C53.2374 40.537 53.5155 39.6813 53.1592 38.982C52.8029 38.2828 51.9472 38.0047 51.248 38.361C50.5487 38.7173 50.2707 39.573 50.627 40.2723C50.9832 40.9715 51.8389 41.2495 52.5382 40.8933Z" stroke="#2A4E84" stroke-width="1.75" stroke-linecap="round" stroke-linejoin="round"/>
<path d="M18.2074 26.569L20.7396 25.2788L32.1199 39.2879C32.5369 39.8009 33.1196 40.1524 33.7678 40.282C34.4161 40.4117 35.0892 40.3113 35.6714 39.9981L48.054 33.6889C48.6298 33.3943 49.088 32.9121 49.3527 32.322C49.6175 31.7318 49.673 31.0691 49.5101 30.4431L46.806 19.9714L25.32 30.9191" stroke="#2A4E84" stroke-width="1.75" stroke-linecap="round" stroke-linejoin="round"/>
</g>
<g opacity="0.1" clip-path="url(#clip4_3_3)">
<path d="M157.218 152.876L155.324 131.22" stroke="#2A4E84" stroke-width="1.75" stroke-linecap="round" stroke-linejoin="round"/>
<path d="M162.126 138.418L165.459 141.244L171.043 134.521" stroke="#2A4E84" stroke-width="1.75" stroke-linecap="round" stroke-linejoin="round"/>
<path d="M170.502 128.334L170.231 125.24C170.195 124.83 169.999 124.45 169.687 124.185C169.374 123.92 168.971 123.791 168.564 123.827L160.908 124.497C159.283 124.639 157.782 125.427 156.735 126.688C155.688 127.949 155.18 129.579 155.324 131.22C155.18 129.579 154.397 128.062 153.147 127.002C151.896 125.942 150.281 125.427 148.657 125.569L141 126.239C140.594 126.274 140.219 126.471 139.957 126.786C139.695 127.102 139.568 127.509 139.604 127.919L141.363 148.028C141.399 148.439 141.595 148.818 141.908 149.083C142.22 149.348 142.624 149.477 143.03 149.441L152.218 148.637C153.437 148.531 154.648 148.917 155.586 149.712C156.523 150.507 157.111 151.645 157.218 152.876C157.111 151.645 157.491 150.422 158.277 149.477C159.062 148.531 160.188 147.94 161.406 147.833L170.594 147.03C171.001 146.994 171.376 146.797 171.638 146.482C171.899 146.167 172.026 145.759 171.99 145.349L171.814 143.338" stroke="#2A4E84" stroke-width="1.75" stroke-linecap="round" stroke-linejoin="round"/>
</g>
<g opacity="0.1" clip-path="url(#clip5_3_3)">
<path d="M282.896 24.2583L281.431 7.52319" stroke="#2A4E84" stroke-width="1.75" stroke-linecap="round" stroke-linejoin="round"/>
<path d="M286.357 13.1148L288.768 15.3129L292.753 10.1462" stroke="#2A4E84" stroke-width="1.75" stroke-linecap="round" stroke-linejoin="round"/>
<path d="M292.335 5.36478L292.125 2.97406C292.098 2.65703 291.955 2.36313 291.729 2.15702C291.503 1.9509 291.212 1.84946 290.92 1.875L285.416 2.35653C284.248 2.4587 283.173 3.06044 282.425 4.02937C281.678 4.99831 281.321 6.25508 281.431 7.52319C281.321 6.25508 280.75 5.07948 279.846 4.25503C278.942 3.43058 277.778 3.0248 276.61 3.12697L271.106 3.6085C270.814 3.63404 270.545 3.78447 270.358 4.02671C270.172 4.26894 270.082 4.58314 270.11 4.90016L271.469 20.4399C271.497 20.7569 271.64 21.0508 271.866 21.2569C272.092 21.463 272.383 21.5645 272.675 21.5389L279.28 20.9611C280.155 20.8845 281.028 21.1888 281.706 21.8071C282.385 22.4255 282.812 23.3072 282.896 24.2583C282.812 23.3072 283.08 22.3646 283.641 21.6379C284.201 20.9112 285.008 20.4599 285.884 20.3833L292.489 19.8054C292.781 19.7799 293.05 19.6294 293.237 19.3872C293.423 19.145 293.513 18.8308 293.485 18.5138L293.349 16.9598" stroke="#2A4E84" stroke-width="1.75" stroke-linecap="round" stroke-linejoin="round"/>
</g>
<g opacity="0.1">
<path d="M269 163.417V153.5C269 152.749 268.684 152.028 268.121 151.497C267.559 150.965 266.796 150.667 266 150.667H242C241.204 150.667 240.441 150.965 239.879 151.497C239.316 152.028 239 152.749 239 153.5V170.5C239 172.058 240.35 173.333 242 173.333H254" stroke="#2A4E84" stroke-width="1.75" stroke-linecap="round" stroke-linejoin="round"/>
<path d="M269 154.917L255.545 162.992C255.082 163.266 254.546 163.411 254 163.411C253.454 163.411 252.918 163.266 252.455 162.992L239 154.917" stroke="#2A4E84" stroke-width="1.75" stroke-linecap="round" stroke-linejoin="round"/>
<path d="M260 171.917L263 174.75L269 169.083" stroke="#2A4E84" stroke-width="1.75" stroke-linecap="round" stroke-linejoin="round"/>
</g>
<g opacity="0.1" clip-path="url(#clip6_3_3)">
<path d="M267.174 78.6679C267.647 78.9088 268.004 79.3275 268.168 79.8319C268.332 80.3364 268.289 80.8853 268.048 81.3579L264.792 87.7482C264.551 88.2209 264.508 88.7698 264.672 89.2742L265.634 92.2358C265.678 92.3694 265.681 92.5128 265.642 92.6479C265.604 92.7831 265.527 92.9039 265.42 92.9951C265.313 93.0863 265.182 93.1437 265.043 93.1603C264.903 93.1768 264.762 93.1516 264.637 93.0878L255.472 88.4181C254.999 88.1773 254.642 87.7586 254.478 87.2541C254.314 86.7496 254.357 86.2007 254.598 85.7281L259.138 76.818C259.379 76.3454 259.797 75.9878 260.302 75.8239C260.806 75.66 261.355 75.7032 261.828 75.944L267.174 78.6679Z" stroke="#2A4E84" stroke-width="1.75" stroke-linecap="round" stroke-linejoin="round"/>
<path d="M268.099 74.6499C268.34 74.1773 268.758 73.8197 269.263 73.6558C269.767 73.4919 270.316 73.5351 270.789 73.7759L279.954 78.4456C280.079 78.5094 280.182 78.6088 280.251 78.7313C280.319 78.8539 280.35 78.994 280.339 79.1339C280.328 79.2739 280.276 79.4075 280.189 79.5178C280.102 79.628 279.984 79.71 279.851 79.7534L276.889 80.7158C276.385 80.8796 275.966 81.2371 275.725 81.7096L272.469 88.0999C272.228 88.5725 271.81 88.9301 271.305 89.094C270.801 89.2579 270.252 89.2147 269.779 88.9739L268.888 88.5199" stroke="#2A4E84" stroke-width="1.75" stroke-linecap="round" stroke-linejoin="round"/>
</g>
<g opacity="0.1">
<path d="M169.625 228.59C169.763 228.532 169.881 228.43 169.963 228.299C170.045 228.167 170.087 228.012 170.083 227.855C170.079 227.698 170.03 227.546 169.942 227.419C169.854 227.292 169.731 227.197 169.59 227.146L141.882 217.125C141.753 217.076 141.613 217.066 141.479 217.098C141.345 217.129 141.222 217.201 141.125 217.303C141.028 217.406 140.96 217.536 140.93 217.678C140.9 217.819 140.909 217.967 140.956 218.104L150.435 247.396C150.483 247.544 150.574 247.674 150.694 247.767C150.814 247.86 150.958 247.912 151.106 247.916C151.255 247.92 151.401 247.876 151.526 247.79C151.65 247.703 151.746 247.579 151.802 247.433L156.439 235.207C156.586 234.821 156.804 234.47 157.083 234.175C157.361 233.88 157.693 233.648 158.058 233.493L169.625 228.59Z" stroke="#2A4E84" stroke-width="1.75" stroke-linecap="round" stroke-linejoin="round"/>
<path d="M141.131 217.308L157.084 234.174" stroke="#2A4E84" stroke-width="1.75" stroke-linecap="round" stroke-linejoin="round"/>
</g>
<g opacity="0.1" clip-path="url(#clip7_3_3)">
<path d="M111.816 98.1031L116.066 99.4883C116.485 99.6248 116.937 99.6819 117.398 99.6564C117.858 99.631 118.318 99.5235 118.75 99.34C119.182 99.1565 119.578 98.9007 119.917 98.5872C120.255 98.2737 120.528 97.9085 120.721 97.5127C120.913 97.1168 121.022 96.6979 121.039 96.2799C121.057 95.862 120.984 95.4531 120.824 95.0767C120.664 94.7003 120.421 94.3638 120.108 94.0862C119.795 93.8087 119.419 93.5956 119 93.4592" stroke="#2A4E84" stroke-width="1.75" stroke-linecap="round" stroke-linejoin="round"/>
<path d="M114.75 92.074L120.062 93.8055C120.908 94.081 121.873 94.0277 122.746 93.6571C123.619 93.2866 124.328 92.6293 124.717 91.8298C125.106 91.0303 125.143 90.1541 124.821 89.3939C124.498 88.6337 123.842 88.0519 122.996 87.7763L114.751 85.089C113.556 84.7004 112.192 84.7762 110.959 85.2997C109.726 85.8233 108.724 86.7518 108.173 87.8813L107.312 89.6499C106.923 90.4494 106.215 91.1067 105.342 91.4772C104.469 91.8477 103.503 91.9011 102.658 91.6255C101.813 91.35 101.157 90.7681 100.834 90.008C100.511 89.2478 100.548 88.3716 100.937 87.5721L103.685 81.9247C104.579 80.0946 106.092 78.528 107.986 77.473C109.879 76.418 112.045 75.9347 114.14 76.0998L115.03 76.1686C115.838 76.2354 116.674 76.0225 117.376 75.5713L119.875 73.9525" stroke="#2A4E84" stroke-width="1.75" stroke-linecap="round" stroke-linejoin="round"/>
<path d="M119.301 72.6013L127.162 86.8055L124.059 88.1226" stroke="#2A4E84" stroke-width="1.75" stroke-linecap="round" stroke-linejoin="round"/>
<path d="M91.375 84.4553L96.1324 99.9767L109.945 104.479C110.79 104.754 111.756 104.701 112.628 104.33C113.501 103.96 114.21 103.302 114.599 102.503C114.988 101.703 115.026 100.827 114.703 100.067C114.38 99.3068 113.724 98.725 112.879 98.4494" stroke="#2A4E84" stroke-width="1.75" stroke-linecap="round" stroke-linejoin="round"/>
<path d="M91.9485 85.8065L104.36 80.5381" stroke="#2A4E84" stroke-width="1.75" stroke-linecap="round" stroke-linejoin="round"/>
</g>
<g opacity="0.1" clip-path="url(#clip8_3_3)">
<path d="M15.787 246.077L20.1291 246.973C20.5568 247.062 21.0101 247.068 21.4633 246.993C21.9165 246.918 22.3606 246.763 22.7703 246.536C23.18 246.308 23.5473 246.014 23.8511 245.67C24.155 245.325 24.3894 244.937 24.5412 244.528C24.6929 244.118 24.759 243.695 24.7355 243.283C24.712 242.871 24.5995 242.478 24.4044 242.126C24.2093 241.774 23.9354 241.47 23.5984 241.232C23.2614 240.994 22.8678 240.826 22.4401 240.737" stroke="#2A4E84" stroke-width="1.75" stroke-linecap="round" stroke-linejoin="round"/>
<path d="M18.098 239.841L23.5257 240.961C24.3893 241.14 25.3394 240.982 26.1668 240.524C26.9943 240.065 27.6313 239.343 27.9377 238.516C28.2442 237.689 28.195 236.825 27.801 236.114C27.4069 235.403 26.7004 234.904 25.8367 234.725L17.413 232.986C16.1923 232.735 14.8499 232.958 13.6807 233.606C12.5115 234.254 11.6111 235.274 11.1773 236.443L10.4994 238.272C10.1929 239.099 9.55589 239.821 8.72846 240.28C7.90104 240.738 6.95097 240.896 6.08727 240.718C5.22358 240.539 4.517 240.04 4.12297 239.329C3.72894 238.618 3.67975 237.754 3.98621 236.927L6.15086 231.086C6.85527 229.193 8.19897 227.491 9.96925 226.249C11.7395 225.008 13.8353 224.297 15.9247 224.231L16.812 224.202C17.6182 224.18 18.4251 223.879 19.0755 223.36L21.3893 221.5" stroke="#2A4E84" stroke-width="1.75" stroke-linecap="round" stroke-linejoin="round"/>
<path d="M20.689 220.236L29.8636 233.319L26.9222 234.95" stroke="#2A4E84" stroke-width="1.75" stroke-linecap="round" stroke-linejoin="round"/>
<path d="M-5.78351 234.91L0.4497 249.623L14.5615 252.537C15.4252 252.715 16.3753 252.558 17.2027 252.099C18.0301 251.641 18.6671 250.918 18.9736 250.091C19.2801 249.264 19.2309 248.401 18.8368 247.69C18.4428 246.979 17.7362 246.479 16.8725 246.301" stroke="#2A4E84" stroke-width="1.75" stroke-linecap="round" stroke-linejoin="round"/>
<path d="M-5.08316 236.173L6.6824 229.652" stroke="#2A4E84" stroke-width="1.75" stroke-linecap="round" stroke-linejoin="round"/>
</g>
<g opacity="0.1">
<path d="M140.17 21.1075C140.217 21.2259 140.3 21.3268 140.407 21.3969C140.513 21.467 140.639 21.5028 140.766 21.4996C140.894 21.4963 141.017 21.4541 141.12 21.3787C141.223 21.3032 141.3 21.1981 141.341 21.0775L149.466 -2.6725C149.506 -2.78326 149.514 -2.90312 149.488 -3.01806C149.463 -3.13299 149.405 -3.23826 149.322 -3.32153C149.238 -3.4048 149.133 -3.46263 149.018 -3.48826C148.903 -3.51389 148.783 -3.50625 148.673 -3.46625L124.923 4.65875C124.802 4.70012 124.697 4.7774 124.621 4.88022C124.546 4.98303 124.504 5.10647 124.5 5.23395C124.497 5.36143 124.533 5.48687 124.603 5.59341C124.673 5.69995 124.774 5.78251 124.893 5.83L134.805 9.805C135.118 9.93046 135.403 10.1181 135.642 10.3565C135.881 10.595 136.069 10.8794 136.195 11.1925L140.17 21.1075Z" stroke="#2A4E84" stroke-width="1.75" stroke-linecap="round" stroke-linejoin="round"/>
<path d="M149.318 -3.31625L135.643 10.3575" stroke="#2A4E84" stroke-width="1.75" stroke-linecap="round" stroke-linejoin="round"/>
</g>
</g>
<defs>
<clipPath id="clip0_3_3">
<rect width="291" height="244" fill="white"/>
</clipPath>
<clipPath id="clip1_3_3">
<rect width="36.7238" height="36.0032" fill="white" transform="translate(204.11 13.5013) rotate(65)"/>
</clipPath>
<clipPath id="clip2_3_3">
<rect width="25.7273" height="31.8261" fill="white" transform="translate(295.705 219.226) rotate(85)"/>
</clipPath>
<clipPath id="clip3_3_3">
<rect width="34.1039" height="34.1039" fill="white" transform="translate(14.2894 25.296) rotate(-27)"/>
</clipPath>
<clipPath id="clip4_3_3">
<rect width="36.8929" height="37.2659" fill="white" transform="translate(136 122) rotate(-5)"/>
</clipPath>
<clipPath id="clip5_3_3">
<rect width="26.5195" height="28.7983" fill="white" transform="translate(267.49 0.311329) rotate(-5)"/>
</clipPath>
<clipPath id="clip6_3_3">
<rect width="24" height="24" fill="white" transform="translate(251 88.3842) rotate(-63)"/>
</clipPath>
<clipPath id="clip7_3_3">
<rect width="40.4508" height="35.2283" fill="white" transform="translate(85 82.3775) rotate(-23)"/>
</clipPath>
<clipPath id="clip8_3_3">
<rect width="40.3566" height="34.6704" fill="white" transform="translate(-12.2967 233.565) rotate(-29)"/>
</clipPath>
</defs>
</svg>
